<?xml version="1.0" encoding="utf-8"?>
<!-- Generator: Adobe Illustrator 24.2.1, SVG Export Plug-In . SVG Version: 6.00 Build 0)  -->
<svg version="1.1" id="Слой_1" xmlns="http://www.w3.org/2000/svg" xmlns:xlink="http://www.w3.org/1999/xlink" x="0px" y="0px"
	 viewBox="0 0 128 128" style="enable-background:new 0 0 128 128;" xml:space="preserve">
<style type="text/css">
	.st0{fill:#3584F4;}
	.st1{fill:#FFFFFF;}
	.st2{fill:#3EBBC4;}
	.st3{fill:#F9F9F9;stroke:#3584F4;stroke-width:4;stroke-miterlimit:10;}
	.st4{fill:#3584F4;stroke:#3584F4;stroke-miterlimit:10;}
</style>
<g>
	<path class="st0" d="M64.4,121l-17.7-16.1C30.2,82.5,9.1,47.2,23.2,29.2C36,12.9,49.1,8.7,64.4,6.5c14.2,0,34.7,11.6,43.2,30.9
		c4.7,10.7-0.1,23.2-5.4,35.7C97.2,85,86,102.4,64.4,121z"/>
	<polygon class="st1" points="51.7,19.9 50,18.5 49.1,17.7 	"/>
	<path class="st0" d="M61.7,123.6c0.8,0.6,1.6,1,2.5,1h0.1c0.2,0,0.4,0,0.6-0.1c0.4-0.1,0.7-0.2,0.9-0.4c0,0,0,0,0.1,0
		c5.2-3.2,44.5-45.1,45.8-70.8v-2.4c0-26.2-21.3-47.5-47.5-47.5S16.6,24.7,16.6,50.9c0,0.8,0,1.7,0.1,2.6
		c0.7,13.2,11.2,30.1,19.9,42C46,108.3,57.1,120.3,61.7,123.6z M20.7,52.9c-0.1-0.5-0.1-1.3-0.1-2c0-24,19.5-43.5,43.5-43.5
		s43.5,19.5,43.5,43.5v2.3c-1.2,22.8-37.2,62.7-43.4,67.2h-0.1c-6.3-4.1-42.1-44-43.3-67.3L20.7,52.9z"/>
	<path class="st2" d="M139.8,69.5v25.3h37.8V69.5l2.2,2.2l2.8-2.8l-5-5V49.6H168v4.7l-9.3-9.3l-23.9,23.9l2.8,2.8L139.8,69.5z
		 M171.9,63.9V53.6h1.6v11.6v0.3v25.3h-29.7V65.5l14.9-14.9L171.9,63.9z"/>
	<ellipse class="st3" cx="64.4" cy="51.3" rx="36.7" ry="37.4"/>
	<path class="st4" d="M84,31.5c-1.3-1.2-3-2-5.2-2.6c-2.2-0.5-4.9-0.8-8.2-0.8H58.2c-3.3,0-6,0.2-8.2,0.8c-2.2,0.5-3.9,1.4-5.2,2.6
		c-1.3,1.2-2.2,2.7-2.8,4.7c-0.5,1.9-0.8,4.3-0.8,7.1V72c0,0.9,0.7,1.5,1.5,1.5h6.6c0.9,0,1.5-0.7,1.5-1.5v-7.4
		c0-0.9,0.7-1.5,1.5-1.5h18.2c3.3,0,6-0.3,8.2-0.8c2.2-0.5,3.9-1.4,5.2-2.6c1.3-1.2,2.2-2.7,2.8-4.6c0.6-1.9,0.8-4.3,0.8-7.1v-4.7
		c0-2.8-0.3-5.1-0.8-7.1C86.2,34.2,85.3,32.7,84,31.5L84,31.5z M77.9,47.7c0,1.6-0.1,2.9-0.4,3.8c-0.2,0.9-0.7,1.7-1.3,2.2
		c-0.6,0.5-1.5,0.9-2.6,1c-1.1,0.1-2.5,0.2-4.2,0.2h-17c-0.9,0-1.5-0.7-1.5-1.5v-9.9c0-1.4,0.1-2.6,0.3-3.5c0.2-0.9,0.6-1.7,1.2-2.2
		c0.6-0.5,1.3-0.9,2.4-1.1c1-0.2,2.2-0.3,3.8-0.3h10.8c1.7,0,3.1,0.1,4.2,0.3c1.1,0.2,2,0.5,2.6,1c0.7,0.5,1.1,1.3,1.3,2.2
		c0.3,1,0.4,2.2,0.4,3.7V47.7L77.9,47.7z"/>
</g>
</svg>
